<?xml version="1.0" encoding="utf-8"?>
<!-- Generator: Adobe Illustrator 15.1.0, SVG Export Plug-In . SVG Version: 6.00 Build 0)  -->
<!DOCTYPE svg PUBLIC "-//W3C//DTD SVG 1.1//EN" "http://www.w3.org/Graphics/SVG/1.1/DTD/svg11.dtd">
<svg version="1.1" id="Layer_1" xmlns="http://www.w3.org/2000/svg" xmlns:xlink="http://www.w3.org/1999/xlink" x="0px" y="0px"
	 width="20.283px" height="20.283px" viewBox="0 0 20.283 20.283" enable-background="new 0 0 20.283 20.283" xml:space="preserve">
<g>
	<path d="M3.169,15.417c0.066-0.445,0.205-0.816,0.416-1.113c1.273-0.41,1.91-1.199,1.91-2.367c0-0.242-0.045-0.615-0.135-1.119
		c-0.738,0.035-1.359,0.123-1.863,0.264l0.381-0.525c0.395-0.084,0.863-0.125,1.406-0.125L4.956,9.06
		C5.39,8.368,5.843,7.812,6.315,7.39C5.413,7.292,4.704,7.03,4.188,6.604C4.298,6.21,4.534,5.86,4.897,5.556
		c0.504,0.648,1.414,0.973,2.73,0.973v-1.23l0.668-0.434C8.093,5.415,7.991,5.923,7.991,6.388v0.141h0.791
		c1.062,0,1.838,0.152,2.326,0.457c1.008,0.633,1.512,1.65,1.512,3.053c0,0.844-0.16,1.575-0.48,2.194s-0.871,1.261-1.652,1.925
		l-0.381,0.322c-0.352,0.301-0.627,0.613-0.826,0.938c-1.247-0.312-2.479-0.469-3.694-0.469C4.62,14.948,3.814,15.104,3.169,15.417z
		 M7.628,13.923v-3.105l-0.979,0.012c0.012,0.094,0.018,0.168,0.018,0.223c0,1.176-0.662,2.205-1.986,3.088
		c0.801-0.168,1.557-0.252,2.268-0.252C7.159,13.888,7.386,13.899,7.628,13.923z M7.628,10.431v-2.93
		C7.14,7.474,6.835,7.446,6.714,7.419C6.378,7.786,6.21,8.192,6.21,8.638c0,0.254,0.053,0.588,0.158,1.002l0.205,0.814
		c0.293-0.012,0.59-0.018,0.891-0.018L7.628,10.431z M7.991,13.946c0.73,0.078,1.316,0.182,1.758,0.311
		c1.094-0.91,1.641-2.133,1.641-3.668c0-1.035-0.233-1.786-0.7-2.253S9.444,7.608,8.354,7.554L7.991,7.536v2.889
		c0.645,0,1.238,0.027,1.781,0.083l-0.416,0.415c-0.383-0.07-0.74-0.105-1.072-0.105l-0.293-0.006V13.946z"/>
	<path d="M15.831,12.124c-0.312,0.196-0.588,0.494-0.826,0.893c-0.527-0.234-0.883-0.51-1.066-0.826
		c0.109-0.577,0.447-1.237,1.014-1.979l0.281-0.369c0.484-0.613,0.727-1.06,0.727-1.341c0-0.359-0.188-0.66-0.562-0.902
		c-0.375-0.241-0.84-0.362-1.395-0.362c-0.078,0-0.205,0.01-0.381,0.029c0.234-0.266,0.426-0.574,0.574-0.926
		c0.148-0.02,0.291-0.029,0.428-0.029c0.707,0,1.299,0.174,1.775,0.521c0.477,0.348,0.715,0.778,0.715,1.294
		c0,0.546-0.34,1.091-1.02,1.633l-0.416,0.334c-0.535,0.429-0.803,0.786-0.803,1.071C14.876,11.593,15.194,11.913,15.831,12.124z
		 M14.753,13.535c0.271,0.438,0.585,0.753,0.945,0.944c-0.364,0.188-0.679,0.501-0.945,0.939c-0.262-0.438-0.575-0.751-0.939-0.939
		C14.178,14.288,14.491,13.974,14.753,13.535z"/>
</g>
</svg>
