<?xml version="1.0" encoding="utf-8"?>
<!-- Generator: Adobe Illustrator 15.1.0, SVG Export Plug-In . SVG Version: 6.00 Build 0)  -->
<!DOCTYPE svg PUBLIC "-//W3C//DTD SVG 1.1//EN" "http://www.w3.org/Graphics/SVG/1.1/DTD/svg11.dtd">
<svg version="1.1" id="Layer_1" xmlns="http://www.w3.org/2000/svg" xmlns:xlink="http://www.w3.org/1999/xlink" x="0px" y="0px"
	 width="69.959px" height="16.658px" viewBox="0 0 69.959 16.658" enable-background="new 0 0 69.959 16.658" xml:space="preserve">
<g>
	<path d="M4.017,13.298c0.066-0.445,0.205-0.816,0.416-1.113c1.273-0.41,1.91-1.199,1.91-2.367c0-0.242-0.045-0.615-0.135-1.119
		C5.47,8.733,4.849,8.821,4.345,8.962l0.381-0.525c0.395-0.084,0.863-0.125,1.406-0.125L5.804,6.94
		c0.434-0.691,0.887-1.248,1.359-1.67C6.261,5.173,5.552,4.911,5.037,4.485c0.109-0.395,0.346-0.744,0.709-1.049
		C6.25,4.085,7.16,4.409,8.476,4.409v-1.23l0.668-0.434C8.941,3.296,8.839,3.804,8.839,4.269v0.141H9.63
		c1.062,0,1.838,0.152,2.326,0.457c1.008,0.633,1.512,1.65,1.512,3.053c0,0.844-0.16,1.575-0.48,2.194s-0.871,1.261-1.652,1.925
		l-0.381,0.322c-0.352,0.301-0.627,0.613-0.826,0.938c-1.247-0.312-2.479-0.469-3.695-0.469C5.468,12.829,4.662,12.985,4.017,13.298
		z M8.476,11.804V8.698L7.498,8.71c0.012,0.094,0.018,0.168,0.018,0.223c0,1.176-0.662,2.205-1.986,3.088
		c0.801-0.168,1.557-0.252,2.268-0.252C8.007,11.769,8.234,11.78,8.476,11.804z M8.476,8.312v-2.93
		C7.988,5.354,7.683,5.327,7.562,5.3C7.226,5.667,7.058,6.073,7.058,6.519c0,0.254,0.053,0.588,0.158,1.002l0.205,0.814
		c0.293-0.012,0.59-0.018,0.891-0.018L8.476,8.312z M8.839,11.827c0.73,0.078,1.316,0.182,1.758,0.311
		c1.094-0.91,1.641-2.133,1.641-3.668c0-1.035-0.233-1.786-0.7-2.253s-1.245-0.728-2.335-0.782L8.839,5.417v2.889
		c0.645,0,1.238,0.027,1.781,0.083l-0.416,0.415c-0.383-0.07-0.74-0.105-1.072-0.105L8.839,8.692V11.827z"/>
	<path d="M17.025,12.472c-0.863-0.371-1.541-0.929-2.033-1.675c-0.492-0.745-0.738-1.587-0.738-2.523
		c0-0.503,0.113-1.124,0.34-1.861c0.637-0.758,1.402-1.36,2.297-1.81V3.538l0.639-0.359c-0.184,0.92-0.275,1.778-0.275,2.577v0.223
		c0.617-0.824,1.213-1.417,1.787-1.78l0.135-0.006c1.164,0,2.135,0.396,2.912,1.191c0.777,0.794,1.166,1.784,1.166,2.971
		c0,0.434-0.057,0.893-0.17,1.376c-0.871,1.113-1.969,1.942-3.293,2.489c0.465-0.051,0.91-0.076,1.336-0.076
		c1.09,0,2.004,0.289,2.742,0.867c-0.406,0.094-0.789,0.395-1.148,0.902c-0.629-0.555-1.543-0.832-2.742-0.832
		c-0.562,0-1.141,0.055-1.734,0.164c0.199-0.402,0.508-0.789,0.926-1.16c0.863-0.305,1.555-0.758,2.074-1.358
		s0.779-1.249,0.779-1.943c0-0.921-0.287-1.718-0.861-2.389s-1.256-1.007-2.045-1.007c-0.648,0-1.27,0.417-1.863,1.253v4.554
		c0.312,0.148,0.564,0.223,0.756,0.223c0.359,0,0.686-0.141,0.979-0.422c-0.113-0.343-0.338-0.612-0.674-0.808
		c0.254-0.491,0.539-0.825,0.855-1.001c0.344,0.215,0.617,0.548,0.82,1.001c-0.316,0.605-0.709,1.087-1.178,1.446
		S17.748,12.272,17.025,12.472z M16.89,11.013V4.995c-0.418,0.351-0.757,0.825-1.017,1.422c-0.26,0.598-0.39,1.198-0.39,1.804
		C15.484,9.384,15.953,10.314,16.89,11.013z"/>
	<path d="M28.058,10.983c-0.543,0.984-1.137,1.732-1.781,2.244c-0.5-0.324-0.894-0.802-1.181-1.433s-0.431-1.333-0.431-2.106
		c0-0.754,0.08-1.436,0.24-2.045c-0.398,0.051-0.762,0.279-1.09,0.686l-0.205-0.264c0.465-0.738,1.086-1.283,1.863-1.635
		c0.219,0.312,0.504,0.562,0.855,0.75c-0.336,0.508-0.504,1.242-0.504,2.203c0,1.121,0.301,1.924,0.902,2.408
		c0.457-0.328,0.9-0.799,1.33-1.412l-0.012-0.463c0-0.645,0.051-1.209,0.152-1.693c-0.246-0.285-0.449-0.492-0.609-0.621
		c0.355-0.285,0.721-0.676,1.096-1.172c0.203,0.457,0.49,0.791,0.861,1.002c-0.219,0.746-0.328,1.617-0.328,2.613
		c0,0.684,0.062,1.211,0.188,1.582c0.273-0.117,0.572-0.305,0.896-0.562l0.258,0.293c-0.613,0.504-1.166,1.059-1.658,1.664
		c-0.035,0.047-0.09,0.115-0.164,0.205C28.343,12.829,28.117,12.081,28.058,10.983z"/>
	<path d="M35.318,10.591c-0.5,1.039-1.219,1.918-2.156,2.637c-0.895-0.492-1.491-0.981-1.79-1.468s-0.448-1.208-0.448-2.165
		c0-0.363,0.021-0.701,0.064-1.014c0.598-0.836,1.291-1.553,2.08-2.15c0.535,0.734,1.225,1.125,2.068,1.172l-0.24,0.686
		c-0.605,0.699-1.52,1.418-2.742,2.156c0.234,0.703,0.678,1.205,1.33,1.506c0.637-0.391,1.152-0.922,1.547-1.594L35.318,10.591z
		 M32.037,9.911c0.93-0.562,1.607-1.07,2.033-1.523c-0.586-0.121-1.143-0.418-1.67-0.891c-0.262,0.473-0.393,1.035-0.393,1.688
		C32.007,9.349,32.017,9.591,32.037,9.911z"/>
	<path d="M37.849,13.228c-0.434-0.855-1.014-1.283-1.74-1.283c-0.148,0-0.305,0.031-0.469,0.094
		c0.141-0.496,0.346-0.869,0.615-1.119c0.98,0,1.758,0.484,2.332,1.453c0.535-0.406,0.803-0.938,0.803-1.594
		c0-0.324-0.072-0.593-0.217-0.806s-0.363-0.37-0.656-0.472l-0.668,0.645c-0.113,0.008-0.195,0.012-0.246,0.012
		c-0.477,0-0.854-0.182-1.131-0.544S36.056,8.76,36.056,8.14c0.5-0.783,1.098-1.353,1.793-1.709c0.191,0.105,0.384,0.186,0.577,0.24
		s0.386,0.082,0.577,0.082c0.203,0,0.402-0.027,0.598-0.082s0.387-0.135,0.574-0.24c-0.102,0.42-0.279,0.769-0.533,1.047
		c-0.176,0.087-0.355,0.151-0.539,0.194c-0.184,0.044-0.371,0.065-0.562,0.065c-0.238,0-0.47-0.039-0.694-0.116
		s-0.444-0.192-0.659-0.347c-0.098,0.168-0.146,0.385-0.146,0.65c0,0.781,0.365,1.172,1.096,1.172l0.615-0.607
		c0.574,0.035,1.005,0.203,1.292,0.504s0.431,0.735,0.431,1.306c0,0.512-0.113,1.019-0.34,1.522
		c-0.301,0.227-0.645,0.432-1.031,0.615l-0.305,0.146C38.439,12.755,38.123,12.97,37.849,13.228z"/>
	<path d="M43.369,13.228c-0.523-0.34-0.891-0.746-1.102-1.219s-0.316-1.129-0.316-1.969V7.298h-0.111
		c-0.477,0-0.906,0.068-1.289,0.205c0.078-0.32,0.191-0.598,0.34-0.832c0.34-0.062,0.637-0.094,0.891-0.094h0.17V6.501
		c0-0.438,0.165-0.89,0.495-1.356s0.774-0.874,1.333-1.222l0.211,0.334c-0.586,0.492-0.879,1.201-0.879,2.127v0.193h0.434
		c0.465,0,0.963,0.031,1.494,0.094c-0.195,0.219-0.334,0.471-0.416,0.756c-0.539-0.086-0.957-0.129-1.254-0.129h-0.258v2.25
		c0,0.996,0.223,1.734,0.668,2.215c0.508-0.258,0.928-0.611,1.26-1.061l0.299,0.188C44.9,11.667,44.244,12.446,43.369,13.228z"/>
	<path d="M48.285,6.718c-0.305,0.57-0.457,1.217-0.457,1.939v1.734c0,0.496,0.055,0.908,0.164,1.236
		c0.301-0.137,0.6-0.33,0.896-0.58l0.24,0.316c-0.852,0.727-1.453,1.348-1.805,1.863c-0.434-0.539-0.65-1.266-0.65-2.18V9.829
		c0-0.844,0.129-1.537,0.387-2.08c-0.18-0.043-0.33-0.102-0.451-0.176c-0.383,0.309-0.688,0.656-0.914,1.043l-0.287-0.223
		c0.418-0.863,0.938-1.518,1.559-1.963C47.306,6.595,47.746,6.69,48.285,6.718z M46.457,5.347c0.07-0.305,0.18-0.613,0.328-0.926
		c0.574-0.641,1.186-1.152,1.834-1.535c-0.262,0.461-0.434,0.93-0.516,1.406C47.501,4.593,46.953,4.944,46.457,5.347z"/>
	<path d="M51.862,13.228c-0.767-0.195-1.395-0.596-1.886-1.201c-0.491-0.605-0.736-1.289-0.736-2.051
		c0-0.961,0.54-1.852,1.619-2.672l0.199-0.158c0.352-0.262,0.62-0.5,0.804-0.715c0.788,0.23,1.422,0.645,1.902,1.242
		s0.72,1.271,0.72,2.021c0,0.961-0.556,1.861-1.668,2.701l-0.252,0.193C52.279,12.804,52.045,13.017,51.862,13.228z M52.414,12.243
		c0.658-0.523,0.986-1.182,0.986-1.975c0-0.598-0.191-1.151-0.572-1.661c-0.382-0.51-0.897-0.897-1.547-1.163
		c-0.638,0.473-0.957,1.117-0.957,1.934c0,0.613,0.187,1.176,0.561,1.688S51.768,11.97,52.414,12.243z"/>
	<path d="M57.056,9.396v2.168c0.09,0.133,0.24,0.297,0.451,0.492c-0.422,0.355-0.777,0.746-1.066,1.172
		c-0.156-0.387-0.402-0.697-0.738-0.932c0.133-0.395,0.199-0.807,0.199-1.236V8.599c0-0.293-0.053-0.57-0.158-0.832
		c-0.312,0.223-0.586,0.5-0.82,0.832l-0.299-0.234c0.391-0.758,0.996-1.402,1.816-1.934c0.371,0.516,0.576,1.238,0.615,2.168
		c0.438-0.906,0.967-1.629,1.588-2.168C59.382,7.013,60,7.304,60.496,7.304c0.043,0,0.102-0.002,0.176-0.006
		c-0.312,0.754-0.469,1.562-0.469,2.426v0.311c0,0.734,0.092,1.277,0.275,1.629c0.27-0.133,0.555-0.342,0.855-0.627l0.27,0.287
		c-0.699,0.59-1.293,1.225-1.781,1.904c-0.516-0.641-0.773-1.551-0.773-2.73v-0.393c0-0.738,0.055-1.342,0.164-1.811
		c-0.289-0.062-0.6-0.217-0.932-0.463C57.73,8.241,57.322,8.763,57.056,9.396z"/>
	<path d="M63.63,13.228c-0.434-0.855-1.014-1.283-1.74-1.283c-0.148,0-0.305,0.031-0.469,0.094c0.141-0.496,0.346-0.869,0.615-1.119
		c0.98,0,1.758,0.484,2.332,1.453c0.535-0.406,0.803-0.938,0.803-1.594c0-0.324-0.072-0.593-0.217-0.806s-0.363-0.37-0.656-0.472
		l-0.668,0.645c-0.113,0.008-0.195,0.012-0.246,0.012c-0.477,0-0.854-0.182-1.131-0.544S61.837,8.76,61.837,8.14
		c0.5-0.783,1.098-1.353,1.793-1.709c0.191,0.105,0.384,0.186,0.577,0.24s0.386,0.082,0.577,0.082c0.203,0,0.402-0.027,0.598-0.082
		s0.387-0.135,0.574-0.24c-0.102,0.42-0.279,0.769-0.533,1.047c-0.176,0.087-0.355,0.151-0.539,0.194
		c-0.184,0.044-0.371,0.065-0.562,0.065c-0.238,0-0.47-0.039-0.694-0.116s-0.444-0.192-0.659-0.347
		c-0.098,0.168-0.146,0.385-0.146,0.65c0,0.781,0.365,1.172,1.096,1.172l0.615-0.607c0.574,0.035,1.005,0.203,1.292,0.504
		s0.431,0.735,0.431,1.306c0,0.512-0.113,1.019-0.34,1.522c-0.301,0.227-0.645,0.432-1.031,0.615l-0.305,0.146
		C64.22,12.755,63.904,12.97,63.63,13.228z"/>
</g>
</svg>
